<?xml version="1.0" encoding="iso-8859-1"?>
<!-- Generator: Adobe Illustrator 19.0.0, SVG Export Plug-In . SVG Version: 6.00 Build 0)  -->
<svg version="1.1" id="Layer_1" xmlns="http://www.w3.org/2000/svg" xmlns:xlink="http://www.w3.org/1999/xlink" x="0px" y="0px"
	 viewBox="0 0 511.733 511.733" style="enable-background:new 0 0 511.733 511.733;" xml:space="preserve">
<path style="fill:#E8EAE9;" d="M445.867,124.8v305.067c0,14.933-12.8,27.733-27.733,27.733h-390.4C12.8,457.6,0,444.8,0,429.867
	V124.8H445.867z"/>
<path style="fill:#66C6B9;" d="M445.867,124.8V65.067c0-14.933-12.8-27.733-27.733-27.733h-390.4C12.8,37.333,0,49.067,0,65.067
	V124.8H445.867z"/>
<g>
	<path style="fill:#415A6B;" d="M99.2,0L99.2,0C88.533,0,81.067,8.533,81.067,18.133V64c0,9.6,8.533,18.133,18.133,18.133l0,0
		c9.6,0,18.133-8.533,18.133-18.133V18.133C117.333,8.533,108.8,0,99.2,0z"/>
	<path style="fill:#415A6B;" d="M346.667,0L346.667,0c-9.6,0-18.133,8.533-18.133,18.133V64c0,9.6,8.533,18.133,18.133,18.133l0,0
		c9.6,0,18.133-8.533,18.133-18.133V18.133C364.8,8.533,356.267,0,346.667,0z"/>
</g>
<g>
	<path style="fill:#CED6E0;" d="M306.133,231.467h-67.2v-67.2h67.2V231.467z M253.867,216.533H291.2V179.2h-37.333V216.533z"/>
	<path style="fill:#CED6E0;" d="M406.4,231.467h-67.2v-67.2h67.2V231.467z M354.133,216.533h37.333V179.2h-37.333V216.533z"/>
	<path style="fill:#CED6E0;" d="M106.667,326.4h-67.2v-67.2h67.2V326.4z M54.4,311.467h37.333v-37.333H54.4V311.467z"/>
	<path style="fill:#CED6E0;" d="M205.867,326.4h-67.2v-67.2h67.2V326.4z M153.6,311.467H192v-37.333h-37.333v37.333H153.6z"/>
	<path style="fill:#CED6E0;" d="M306.133,326.4h-67.2v-67.2h67.2V326.4z M253.867,311.467H291.2v-37.333h-37.333V311.467z"/>
	<path style="fill:#CED6E0;" d="M406.4,326.4h-67.2v-67.2h67.2V326.4z M354.133,311.467h37.333v-37.333h-37.333V311.467z"/>
	<path style="fill:#CED6E0;" d="M205.867,421.333h-67.2v-67.2h67.2V421.333z M153.6,406.4H192v-37.333h-37.333V406.4H153.6z"/>
	<path style="fill:#CED6E0;" d="M306.133,421.333h-67.2v-67.2h67.2V421.333z M253.867,406.4H291.2v-37.333h-37.333V406.4z"/>
</g>
<g>
	<path style="fill:#F3705A;" d="M126.933,193.067l20.267,20.267l50.133-50.133c3.2-3.2,7.467-3.2,10.667,0
		c3.2,3.2,3.2,7.467,0,10.667l-55.467,55.467c-1.067,1.067-3.2,2.133-5.333,2.133l0,0c-2.133,0-4.267-1.067-5.333-2.133l-25.6-25.6
		C108.8,196.267,119.467,185.6,126.933,193.067z"/>
	<path style="fill:#F3705A;" d="M43.733,381.867L64,402.133L114.133,352c3.2-3.2,7.467-3.2,10.667,0c3.2,3.2,3.2,7.467,0,10.667
		l-55.467,55.467c-1.067,1.067-3.2,2.133-5.333,2.133l0,0c-2.133,0-4.267-1.067-5.333-2.133l-25.6-25.6
		C25.6,384,35.2,373.333,43.733,381.867z"/>
</g>
<path style="fill:#FFD15C;" d="M250.667,310.4c12.8-1.067,19.2-7.467,20.267-20.267c12.8-1.067,19.2-7.467,20.267-20.267
	c12.8-1.067,19.2-7.467,20.267-20.267l-72.533-12.8L250.667,310.4z"/>
<path style="fill:#F3705A;" d="M270.933,290.133c12.8-1.067,19.2-7.467,20.267-20.267L450.133,428.8l-20.267,20.267L270.933,290.133
	z"/>
<g>
	<path style="fill:#F05540;" d="M290.133,270.933c12.8-1.067,19.2-7.467,20.267-20.267L469.333,409.6l-20.267,20.267
		L290.133,270.933z"/>
	<path style="fill:#F05540;" d="M250.667,310.4c12.8-1.067,19.2-7.467,20.267-20.267l158.933,158.933L409.6,469.333L250.667,310.4z"
		/>
</g>
<path style="fill:#415A6B;" d="M507.733,448l-38.4-38.4L409.6,469.333l38.4,38.4c5.333,5.333,14.933,5.333,21.333,0l38.4-38.4
	C513.067,462.933,513.067,453.333,507.733,448z"/>
<rect x="437.408" y="403.156" transform="matrix(-0.7071 -0.7071 0.7071 -0.7071 445.4921 1075.1069)" style="fill:#E8EAE9;" width="16" height="84.266"/>
<path style="fill:#415A6B;" d="M242.133,261.333l-4.267-22.4l22.4,4.267C259.2,251.733,251.733,259.2,242.133,261.333z"/>
<g>
</g>
<g>
</g>
<g>
</g>
<g>
</g>
<g>
</g>
<g>
</g>
<g>
</g>
<g>
</g>
<g>
</g>
<g>
</g>
<g>
</g>
<g>
</g>
<g>
</g>
<g>
</g>
<g>
</g>
</svg>
